<svg xmlns="http://www.w3.org/2000/svg" viewBox="0 0 280.52 84.97"><defs><style>.cls-1{fill:#fff;}.cls-2{fill:#ecb665;}.cls-3{fill:#d84141;}</style></defs><g id="Calque_2" data-name="Calque 2"><g id="Calque_1-2" data-name="Calque 1"><path class="cls-1" d="M13.87,54.74H8a3.32,3.32,0,0,0-1.48.19,3.39,3.39,0,0,0-.78,1.29l-1,2.37A6.91,6.91,0,0,0,4,61a1.41,1.41,0,0,0,.38,1.1,3.41,3.41,0,0,0,1.49.58c.32.07.49.19.5.38s-.14.27-.45.27l-.55,0-1.54-.09c-.51,0-1.11,0-1.78,0a6.78,6.78,0,0,0-.73,0l-.9.09c-.29,0-.43-.1-.43-.3a.34.34,0,0,1,.27-.35l.6-.18a2.28,2.28,0,0,0,.87-.78,7.2,7.2,0,0,0,.9-1.42l.47-1.07,8.28-18.39c.14-.32.29-.48.46-.48s.32.15.44.46l6.93,17.75.35.87a7.82,7.82,0,0,0,1.26,2.43,4.32,4.32,0,0,0,2,.75q.5.09.48.39t-.45.27l-.61,0c-.56-.06-1.56-.09-3-.09a24.09,24.09,0,0,0-2.81.1,3.39,3.39,0,0,1-.5.07c-.27,0-.41-.11-.41-.33s.13-.28.4-.33l.5-.12a1,1,0,0,0,.8-1.1,12.12,12.12,0,0,0-1-3.4l-.8-2.13a3,3,0,0,0-.54-1A2.53,2.53,0,0,0,13.87,54.74Zm.19-2.6-2.53-6.38-.13-.33c-.12-.35-.26-.52-.41-.53s-.17.09-.26.3l-3.14,7a1.87,1.87,0,0,0-.21.59c0,.28.24.42.74.42l.43,0h4.87c.53,0,.8-.14.8-.41a1.28,1.28,0,0,0-.08-.37Z"/><path class="cls-1" d="M36,52.11l4.45,6.55.51.77q2.07,3,3.81,3.13l.51,0c.19,0,.29.08.27.23s-.25.31-.71.44a6,6,0,0,1-1.59.2,4.47,4.47,0,0,1-2.6-.8,9.38,9.38,0,0,1-2.34-2.6L34.3,54l-.23-.36a1.35,1.35,0,0,0-1.26-.66H30.67l-.35.07c-.13.07-.2.25-.2.51v5.05l0,.64a8.64,8.64,0,0,0,.14,1.9,1.71,1.71,0,0,0,.65.91,4.11,4.11,0,0,0,2.14.7q.59.06.6.36c0,.21-.16.32-.53.32-.15,0-.47,0-1-.08s-1.13-.07-2-.07H27.76c-.37,0-.81,0-1.32.08s-.71.07-.87.07-.41-.11-.41-.33.14-.27.41-.32a2.11,2.11,0,0,0,1.69-1.17,10.71,10.71,0,0,0,.4-3.65V46.34l0-1.68c0-1.68-.59-2.62-1.76-2.81l-.76-.11c-.34-.07-.51-.19-.51-.38s.18-.33.55-.33l1.12.06c.39,0,.87,0,1.44,0s1.34,0,2.53-.11C31.1,41,31.85,41,32.51,41a9.35,9.35,0,0,1,5.59,1.39A4.86,4.86,0,0,1,40,46.49C40,48.91,38.66,50.78,36,52.11Zm-4.73-.35h1.82a4.6,4.6,0,0,0,3.33-1.17,4.17,4.17,0,0,0,1.21-3.18A5,5,0,0,0,36,43.55,6,6,0,0,0,31.79,42a2,2,0,0,0-1.32.32,1.47,1.47,0,0,0-.36,1.14v7.09a1.42,1.42,0,0,0,.21,1A1.38,1.38,0,0,0,31.27,51.76Z"/><path class="cls-1" d="M67.3,46.92c-.91,1.6-1.52,2.71-1.82,3.34L64,53.33,62.4,56.71l-1.36,3c-.33.75-.62,1.37-.87,1.85-.14.29-.24.5-.29.62-.22.5-.44.75-.69.75s-.5-.26-.73-.79c0-.09-.19-.39-.45-.88l-.33-.68-6-13.06-.37,8c0,.65,0,2,0,3.93s.67,2.94,2,3.14c.65.11,1,.26,1,.47s-.15.37-.46.37a5.74,5.74,0,0,1-.6,0c-1.2-.11-2.13-.16-2.78-.16a16.38,16.38,0,0,0-2.25.14,4,4,0,0,1-.5.05c-.32,0-.48-.12-.48-.35s.13-.29.39-.34a2.41,2.41,0,0,0,1.64-1.1,6.72,6.72,0,0,0,.56-2.81l.23-4.67c.16-3.39.24-5.52.24-6.42a9.06,9.06,0,0,0-.76-4.24,3.36,3.36,0,0,0-2.53-1.7c-.32-.06-.48-.19-.48-.4s.14-.35.4-.35l.54,0c.15,0,.51,0,1.09,0,.88,0,1.44,0,1.67,0a3.77,3.77,0,0,1,.6,0c.46,0,.85.34,1.16,1l.18.37,6.71,14.48.82,1.66c.12.28.2.42.26.42s.14-.1.24-.3l.19-.44.15-.32L68,41.69a2.9,2.9,0,0,1,.36-.64.61.61,0,0,1,.43-.12c.09,0,.32,0,.71.07H70c.68,0,1.22,0,1.63-.06l.46,0c.22,0,.32.09.32.31a.36.36,0,0,1-.32.38l-.69.18a1.57,1.57,0,0,0-1.15,1,7.79,7.79,0,0,0-.33,2.67L70,49.35l.31,8.76.08,2a2.7,2.7,0,0,0,.45,1.75,2.59,2.59,0,0,0,1.65.71c.56.09.85.23.85.43s-.2.31-.6.31h-.4l-1.25-.13c-.42,0-.87-.07-1.35-.07s-.86,0-1.58.08l-1.93.09c-.31,0-.46-.1-.46-.29s.13-.29.4-.36a1.92,1.92,0,0,0,1.27-.84,4.4,4.4,0,0,0,.33-2l-.07-2.63Z"/><path class="cls-1" d="M81.72,43.68v6.49a1.69,1.69,0,0,0,.14.9c.09.1.37.16.83.16h2.48a14.22,14.22,0,0,0,2.67-.2A2.11,2.11,0,0,0,89,50.56a3.24,3.24,0,0,0,.47-1.35c0-.27.19-.4.41-.38s.31.15.31.43a2.66,2.66,0,0,1,0,.35c-.09,1-.14,2-.14,2.85a17.87,17.87,0,0,0,.1,1.94c0,.21,0,.37,0,.47,0,.26-.1.4-.31.4a.38.38,0,0,1-.41-.36l-.1-.45A2.11,2.11,0,0,0,88.54,53a3.67,3.67,0,0,0-2-.39H83a2.26,2.26,0,0,0-1,.16.69.69,0,0,0-.26.65v6.47c0,.91.17,1.48.49,1.71a5.55,5.55,0,0,0,2.49.34q6.31,0,8.12-2.85c.12-.19.24-.28.36-.29s.3.12.3.41A4.22,4.22,0,0,1,92.3,61.7a4.39,4.39,0,0,1-3.57,1.73q-.47,0-1.26-.06c-2-.19-3.75-.29-5.09-.29a27.84,27.84,0,0,0-4,.19,5.12,5.12,0,0,1-.83.12c-.35,0-.52-.12-.52-.35s.14-.31.42-.38l.61-.18c.77-.21,1.16-1,1.16-2.25l0-1V45.55a6.41,6.41,0,0,0-.51-3.11,2.17,2.17,0,0,0-2-.8c-.31,0-.47-.1-.47-.3s.24-.44.72-.44a10.53,10.53,0,0,1,1.08.08,51.37,51.37,0,0,0,5.54.26c1.31,0,2.47,0,3.48-.07l2.29-.11c.63,0,1,0,1.16-.06a4.11,4.11,0,0,1,.65-.07c.35,0,.53.16.53.47a2.11,2.11,0,0,1-.05.37c0,.15-.08.57-.13,1.28l-.07,1a5.64,5.64,0,0,1-.16,1.16.35.35,0,0,1-.36.25c-.21,0-.31-.15-.31-.48v-.42a2.49,2.49,0,0,0-.2-1,1.67,1.67,0,0,0-1.23-1,16.23,16.23,0,0,0-3.43-.24H83.3a2.14,2.14,0,0,0-1.29.25A1.51,1.51,0,0,0,81.72,43.68Z"/><path class="cls-1" d="M103.6,40.72a7.55,7.55,0,0,1,2.91.5l1.12.47a.72.72,0,0,0,.29.06.57.57,0,0,0,.38-.16l.23-.19a.22.22,0,0,1,.18-.07c.26,0,.4.26.4.79,0,.19.07.73.21,1.63l.25,1.66a5.54,5.54,0,0,1,.09.66c0,.33-.12.5-.35.5s-.35-.26-.52-.78a5.4,5.4,0,0,0-2.36-2.87,7.14,7.14,0,0,0-4-1.13,4.23,4.23,0,0,0-2.9,1,3.25,3.25,0,0,0-1.17,2.56,3.66,3.66,0,0,0,.76,2.33,4.31,4.31,0,0,0,1.44,1.23,37.74,37.74,0,0,0,3.84,1.4q5.94,2,6,6.39a6.25,6.25,0,0,1-2.19,4.93,8.28,8.28,0,0,1-5.63,1.91,11.74,11.74,0,0,1-2.73-.35,7.06,7.06,0,0,1-2.18-.82,1,1,0,0,1-.38-.41A6.36,6.36,0,0,1,97,60.86c0-.09-.16-.58-.41-1.47a8.68,8.68,0,0,1-.42-2.06c0-.32.11-.48.33-.47s.37.28.53.79A6.2,6.2,0,0,0,99.47,61a6.7,6.7,0,0,0,4,1.36,5.59,5.59,0,0,0,3.75-1.3,4,4,0,0,0,1.53-3.18,3.86,3.86,0,0,0-1.41-3,16.89,16.89,0,0,0-4.19-1.79,13.3,13.3,0,0,1-5-2.67,5.05,5.05,0,0,1-1.49-3.8,5.27,5.27,0,0,1,1.94-4.24A7.44,7.44,0,0,1,103.6,40.72Z"/><path class="cls-1" d="M143,43l.52,3.86,0,.4,0,.17a.33.33,0,0,1-.24.16c-.13,0-.33-.22-.58-.68q-3-5.26-8.18-5.27A8.47,8.47,0,0,0,128,44.2a9.67,9.67,0,0,0-2.37,6.9,12.46,12.46,0,0,0,2.64,8.22,8.38,8.38,0,0,0,6.78,3.2,9.64,9.64,0,0,0,4.75-1.3,7.39,7.39,0,0,0,3.24-3.13c.28-.57.5-.86.65-.87s.25.09.25.31v.17l-.07.36-.37,2-.06.3c0,.28-.3.57-.76.87a15,15,0,0,1-8.2,2.36,11.52,11.52,0,0,1-8.36-3.07,10.79,10.79,0,0,1-3.17-8.1,11.37,11.37,0,0,1,3.29-8.34,11.1,11.1,0,0,1,8.24-3.33,13,13,0,0,1,6.25,1.53l.65.34.25.11.28.1a.47.47,0,0,0,.24-.13,1.25,1.25,0,0,1,.48-.26C142.81,42.41,142.92,42.62,143,43Z"/><path class="cls-1" d="M158.89,40.72a11.41,11.41,0,0,1,8.27,3.12,10.59,10.59,0,0,1,3.23,8,11.55,11.55,0,0,1-3.25,8.45,11.2,11.2,0,0,1-8.33,3.3,11.51,11.51,0,0,1-8.42-3.15,11.07,11.07,0,0,1-3.21-8.27,12.19,12.19,0,0,1,.84-4.41,10.11,10.11,0,0,1,6.12-6.1A13,13,0,0,1,158.89,40.72Zm-1,1.05a7.49,7.49,0,0,0-5.94,2.52,9.91,9.91,0,0,0-2.2,6.78,12.36,12.36,0,0,0,2.81,8.21,8.71,8.71,0,0,0,6.91,3.35,7.9,7.9,0,0,0,6.17-2.73A9.93,9.93,0,0,0,168,53a11.45,11.45,0,0,0-2.92-8A9.43,9.43,0,0,0,157.85,41.77Z"/><path class="cls-1" d="M193.43,47.33v13.5a17.35,17.35,0,0,1-.08,2.21.42.42,0,0,1-.46.38.55.55,0,0,1-.37-.15l-.35-.42L178.59,47.33l-.16-.18a.32.32,0,0,0-.22-.1c-.21,0-.31.25-.31.73V58.71l0,.68.05,1.14a2.35,2.35,0,0,0,.55,1.47,3.37,3.37,0,0,0,1.71.6c.35,0,.53.18.53.41s-.12.31-.34.31l-.48,0c-.12,0-.59,0-1.41-.1l-1.64-.08-.77,0a11,11,0,0,0-1.19.07,4.87,4.87,0,0,1-.6.06q-.42,0-.45-.3t.45-.39a3.32,3.32,0,0,0,1.83-1.25,5,5,0,0,0,.47-2.52v-11a9.18,9.18,0,0,0-.88-4.4,3.38,3.38,0,0,0-2.56-1.83c-.29,0-.44-.16-.44-.36s.12-.3.36-.3l.25,0,.66,0,1.08,0,.26,0h.6a1.09,1.09,0,0,1,.8.46l14.82,16.79c.24.27.39.4.45.38s.17-.11.18-.3v-8l0-2.18-.2-3.7a3,3,0,0,0-.79-1.94,4.58,4.58,0,0,0-2.3-.85c-.31,0-.47-.18-.47-.39s.16-.3.47-.3c.14,0,.37,0,.68,0a29.06,29.06,0,0,0,3,.12,9.69,9.69,0,0,0,1.59-.1,5.24,5.24,0,0,1,.79-.1c.28,0,.43.12.45.34s-.1.24-.32.31a1.92,1.92,0,0,0-1.3.8,4.85,4.85,0,0,0-.31,2.11v1.74Z"/><path class="cls-1" d="M219.14,43l.51,3.86,0,.4,0,.17a.3.3,0,0,1-.24.16c-.13,0-.32-.22-.58-.68q-3-5.26-8.17-5.27a8.47,8.47,0,0,0-6.48,2.53,9.67,9.67,0,0,0-2.37,6.9,12.45,12.45,0,0,0,2.63,8.22,8.4,8.4,0,0,0,6.78,3.2,9.67,9.67,0,0,0,4.76-1.3,7.39,7.39,0,0,0,3.24-3.13c.28-.57.49-.86.64-.87s.26.09.26.31l0,.17-.06.36-.37,2-.07.3q-.06.42-.75.87a15,15,0,0,1-8.2,2.36,11.49,11.49,0,0,1-8.36-3.07,10.75,10.75,0,0,1-3.17-8.1,11.36,11.36,0,0,1,3.28-8.34,11.11,11.11,0,0,1,8.25-3.33,13,13,0,0,1,6.25,1.53l.64.34.26.11.27.1a.41.41,0,0,0,.24-.13,1.2,1.2,0,0,1,.49-.26C219,42.41,219.08,42.62,219.14,43Z"/><path class="cls-1" d="M228.66,43.68v6.49a1.69,1.69,0,0,0,.14.9c.09.1.36.16.83.16h2.48a14.3,14.3,0,0,0,2.67-.2,2.11,2.11,0,0,0,1.13-.47,3.24,3.24,0,0,0,.47-1.35c.05-.27.19-.4.41-.38s.31.15.31.43c0,.07,0,.19,0,.35-.09,1-.14,2-.14,2.85a17.87,17.87,0,0,0,.1,1.94c0,.21,0,.37,0,.47,0,.26-.11.4-.32.4a.39.39,0,0,1-.41-.36l-.09-.45a2.11,2.11,0,0,0-.77-1.46,3.69,3.69,0,0,0-2-.39H230a2.26,2.26,0,0,0-1.05.16.69.69,0,0,0-.27.65l0,.53v5.94c0,.91.16,1.48.49,1.71a5.55,5.55,0,0,0,2.49.34q6.31,0,8.12-2.85c.12-.19.24-.28.36-.29s.3.12.3.41a4.22,4.22,0,0,1-1.18,2.49,4.39,4.39,0,0,1-3.57,1.73c-.32,0-.73,0-1.26-.06-2-.19-3.75-.29-5.09-.29a27.74,27.74,0,0,0-4,.19,5.35,5.35,0,0,1-.84.12c-.34,0-.51-.12-.51-.35s.14-.31.42-.38l.61-.18c.77-.21,1.16-1,1.16-2.25l0-1V45.55a6.41,6.41,0,0,0-.51-3.11,2.18,2.18,0,0,0-2-.8c-.31,0-.46-.1-.46-.3s.24-.44.72-.44a10.53,10.53,0,0,1,1.08.08,51.24,51.24,0,0,0,5.54.26c1.31,0,2.47,0,3.48-.07l2.29-.11c.63,0,1,0,1.16-.06a4,4,0,0,1,.64-.07c.36,0,.53.16.53.47a2,2,0,0,1,0,.37,10.59,10.59,0,0,0-.13,1.28l-.07,1a6.5,6.5,0,0,1-.16,1.16.37.37,0,0,1-.36.25c-.21,0-.31-.15-.31-.48v-.42a2.49,2.49,0,0,0-.2-1,1.67,1.67,0,0,0-1.24-1,16.06,16.06,0,0,0-3.42-.24h-2.52a2.14,2.14,0,0,0-1.29.25A1.51,1.51,0,0,0,228.66,43.68Z"/><path class="cls-1" d="M248.78,43.7V57.15l0,1.56.05,1.36c.12,1.3.6,2,1.45,2.27a5.66,5.66,0,0,0,1.34.24c.32,0,.49.1.5.28s-.17.41-.56.41q-.28,0-1.08-.06-.53,0-1.68,0l-1.14,0-1.26,0a10.24,10.24,0,0,0-1.43.07,9.18,9.18,0,0,1-.92.08c-.28,0-.42-.11-.42-.32s.18-.32.53-.38a2.07,2.07,0,0,0,1.72-1.41,14.53,14.53,0,0,0,.46-4.41V47a13.36,13.36,0,0,0-.41-4.28c-.26-.59-.94-1-2-1.07q-.43,0-.42-.33c0-.25.22-.37.63-.37a4.83,4.83,0,0,1,.82.08,13.43,13.43,0,0,0,1.68.14c.68,0,1.68-.06,3-.18.68,0,1.23-.08,1.66-.08a8.7,8.7,0,0,1,5.47,1.62,5.09,5.09,0,0,1,2.1,4.23,5.79,5.79,0,0,1-2.58,5,7,7,0,0,1-4.09,1.35,7.3,7.3,0,0,1-1.86-.22c-.56-.15-.83-.31-.81-.47s.12-.2.3-.2a1.56,1.56,0,0,1,.33.05,4.18,4.18,0,0,0,1.19.12,5.27,5.27,0,0,0,3.7-1.28,4.37,4.37,0,0,0,1.39-3.39,5.12,5.12,0,0,0-1.83-4,6.79,6.79,0,0,0-4.65-1.6,1.24,1.24,0,0,0-.88.24,1.32,1.32,0,0,0-.24.92Z"/><path class="cls-1" d="M277.29,42.83h-4.52a1.37,1.37,0,0,0-.9.2,1.57,1.57,0,0,0-.18.95V59.79l0,.63a2.22,2.22,0,0,0,2.11,2.24c.37.06.56.19.56.36s-.15.35-.45.35a5.39,5.39,0,0,1-.79-.1,14.41,14.41,0,0,0-1.46,0l-1.17,0-1.26,0c-.46,0-.84,0-1.15,0-.61.07-1,.1-1.08.1-.32,0-.49-.12-.49-.35s.18-.27.54-.31a2.58,2.58,0,0,0,1.67-.69,3,3,0,0,0,.44-1.88v-16l0-.42A1.13,1.13,0,0,0,269,43a1.28,1.28,0,0,0-.78-.16h-4.27a2.79,2.79,0,0,0-1.89.53,3.69,3.69,0,0,0-.91,2c-.1.42-.24.62-.44.61s-.29-.15-.29-.43a7.19,7.19,0,0,1,.2-1.24,9.69,9.69,0,0,0,.24-1.91,1.88,1.88,0,0,1,.17-1,.87.87,0,0,1,.72-.23h17.34c.59,0,.95.06,1.07.19a2,2,0,0,1,.19,1.14,8.86,8.86,0,0,0,.08,1.38c.05.36.09.63.1.79,0,.32-.11.49-.34.51s-.32-.16-.39-.5a2.33,2.33,0,0,0-.68-1.49A3.28,3.28,0,0,0,277.29,42.83Z"/><path class="cls-2" d="M82.39,80.57c0-2.43,2.6-4.4,5.79-4.4a6.22,6.22,0,0,1,5,2.22l-.77.32a5.31,5.31,0,0,0-4.25-1.85c-2.7,0-4.89,1.65-4.89,3.71s2.19,3.72,4.89,3.72a5.31,5.31,0,0,0,4.25-1.86l.77.33a6.21,6.21,0,0,1-5,2.21C85,85,82.39,83,82.39,80.57Z"/><path class="cls-2" d="M105.29,76.29v8.57h-.9V80.92h-6.6v3.94h-.9V76.29h.9v3.94h6.6V76.29Z"/><path class="cls-2" d="M115.57,82.79h-5.26l-1,2.07h-1l4.08-8.57h1l4.08,8.57h-1Zm-.3-.66-2.33-5-2.33,5Z"/><path class="cls-2" d="M119.76,83.27l.83-.35a3,3,0,0,0,2.78,1.37c1.38,0,2.52-.57,2.52-1.59,0-2.27-5.62-1.6-5.62-4.36,0-1.38,1.45-2.17,3.06-2.17a4.16,4.16,0,0,1,2.9,1l-.71.45a3,3,0,0,0-2.17-.8c-1.12,0-2.18.47-2.18,1.44,0,2.21,5.62,1.53,5.62,4.37,0,1.5-1.61,2.3-3.44,2.3A4,4,0,0,1,119.76,83.27Z"/><path class="cls-2" d="M129.61,83.27l.83-.35a3,3,0,0,0,2.78,1.37c1.38,0,2.52-.57,2.52-1.59,0-2.27-5.62-1.6-5.62-4.36,0-1.38,1.45-2.17,3.07-2.17a4.15,4.15,0,0,1,2.89,1l-.71.45a3,3,0,0,0-2.17-.8c-1.12,0-2.18.47-2.18,1.44,0,2.21,5.63,1.53,5.63,4.37,0,1.5-1.62,2.3-3.45,2.3A4,4,0,0,1,129.61,83.27Z"/><path class="cls-2" d="M141.27,77v3.28h4.47v.66h-4.47v3.29h5.11v.67h-6V76.29h6V77Z"/><path class="cls-2" d="M164.52,80.83h-1.09v1.66c0,1.37-1.29,2.37-3.23,2.37s-3.44-1-3.44-2.32a2.36,2.36,0,0,1,1.6-2.07,2.3,2.3,0,0,1-1.49-2c0-1.27,1.32-2.17,2.9-2.17h2.55V77H159.9c-1.13,0-2.15.57-2.15,1.52s1,1.68,2.32,1.68h2.5V78.64h.86v1.53h1.09v.66Zm-2,1.66V80.83h-2.71c-1.26,0-2.26.74-2.26,1.7s1.15,1.73,2.58,1.73S162.57,83.52,162.57,82.49Z"/><path class="cls-2" d="M180.52,77h-3.18v7.89h-.9V77h-3.18v-.68h7.26V77Z"/><path class="cls-2" d="M183.86,76.29h.91v8.57h-.91Z"/><path class="cls-2" d="M196.91,84.86h-1l-3.25-3.93h-2.45v3.93h-.9V76.29h3.85c1.71,0,3.09,1,3.09,2.34s-1.17,2.14-2.67,2.27Zm-3.83-4.59c1.26,0,2.23-.7,2.23-1.64s-1-1.66-2.23-1.66h-2.9v3.3Z"/><rect class="cls-1" x="158.84" y="39.34" width="0.43" height="7.25"/><rect class="cls-1" x="158.81" y="57.58" width="0.43" height="7.31"/><rect class="cls-1" x="157.18" y="39.02" width="3.74" height="0.43"/><rect class="cls-1" x="157.33" y="64.62" width="3.51" height="0.43"/><rect class="cls-1" x="146.34" y="51.85" width="7.25" height="0.43"/><rect class="cls-1" x="164.58" y="51.88" width="7.31" height="0.43"/><rect class="cls-1" x="146.01" y="50.19" width="0.43" height="3.74"/><rect class="cls-1" x="171.61" y="50.28" width="0.43" height="3.51"/><rect class="cls-3" x="157.75" y="51.6" width="2.58" height="0.86"/><rect class="cls-3" x="158.61" y="50.75" width="0.86" height="2.58"/><path class="cls-2" d="M148.17,16.88a1.07,1.07,0,0,1,.25,0,.87.87,0,0,1,.62.61c.4,1.14-.42,3.83-1,4.88a4.23,4.23,0,0,0,.74.8c2.2,1.84,4.36,2.56,6.4,2.15,3.64-.74,5.79-4.89,5.81-4.93a.44.44,0,0,1,.58-.19.43.43,0,0,1,.18.58c-.09.19-2.35,4.55-6.39,5.38-2.31.47-4.71-.31-7.13-2.33a5.06,5.06,0,0,1-1.32-5.95A1.58,1.58,0,0,1,148.17,16.88Zm-.65,4.59c.57-1.25,1-3.42.67-3.74-.11,0-.35.16-.56.57A4.15,4.15,0,0,0,147.52,21.47Z"/><path class="cls-2" d="M152.24,9.75a9.72,9.72,0,0,1,5.51,1.59,10,10,0,0,1,4.17,6.78,9,9,0,0,1-2,7.33,8.62,8.62,0,0,1-7.19,2.71,8.1,8.1,0,0,1-7-4.16c-1.34-2.35-1.59-5.27-.62-7.09a5.15,5.15,0,0,1,3.59-2.65,5,5,0,0,1,5.46,7c-.5,1-1.25,1.45-1.95,1.27a1.2,1.2,0,0,1-.85-1.14,5.46,5.46,0,0,1,1.6-4.22,4.55,4.55,0,0,0-.89-1,3.76,3.76,0,0,0-3.15-.82,4.05,4.05,0,0,0-2.8,2.07,6.83,6.83,0,0,0,.61,6,7,7,0,0,0,6,3.59,7.7,7.7,0,0,0,6.29-2.33,7.82,7.82,0,0,0,1.73-6.4,8.81,8.81,0,0,0-3.67-6c-2.1-1.42-4.75-1.76-7.88-1-8.8,2.08-9.62,11.78-9.62,11.87a.58.58,0,0,1-1.15-.08c0-.11.9-10.64,10.5-12.91A14.76,14.76,0,0,1,152.24,9.75Zm.33,11.7a1.34,1.34,0,0,0,.61-.68,3.7,3.7,0,0,0,.27-2.4,4.74,4.74,0,0,0-.87,2A2.06,2.06,0,0,0,152.57,21.45Z"/><path class="cls-2" d="M129.82,16.88a1.59,1.59,0,0,1,1.31,1,5.08,5.08,0,0,1-1.32,5.95c-2.42,2-4.82,2.8-7.13,2.33-4.05-.83-6.3-5.19-6.4-5.38a.43.43,0,0,1,.19-.58.44.44,0,0,1,.58.19s2.17,4.18,5.81,4.93c2,.42,4.19-.31,6.4-2.15a4.52,4.52,0,0,0,.73-.8c-.62-1-1.44-3.74-1-4.88a.87.87,0,0,1,.62-.61A1,1,0,0,1,129.82,16.88Zm.65,4.59a4.15,4.15,0,0,0-.11-3.17c-.2-.41-.44-.59-.57-.56C129.47,18.05,129.91,20.22,130.47,21.47Z"/><path class="cls-2" d="M125.76,9.75a14.67,14.67,0,0,1,3.27.4c9.6,2.27,10.5,12.8,10.5,12.91a.57.57,0,1,1-1.14.08c0-.39-.85-9.8-9.62-11.87-3.13-.74-5.78-.4-7.88,1a8.82,8.82,0,0,0-3.68,6,7.85,7.85,0,0,0,1.73,6.4A7.68,7.68,0,0,0,125.23,27a7,7,0,0,0,6-3.59c1.27-2.24,1.26-4.75.6-6a4,4,0,0,0-2.79-2.07,3.78,3.78,0,0,0-3.16.82,4.49,4.49,0,0,0-.88,1,5.55,5.55,0,0,1,1.6,4.22,1.21,1.21,0,0,1-.85,1.14c-.71.18-1.46-.31-2-1.27a5,5,0,0,1,5.46-7,5.15,5.15,0,0,1,3.59,2.65c1,1.82.72,4.74-.62,7.09a8.1,8.1,0,0,1-6.95,4.16,8.67,8.67,0,0,1-7.19-2.71,9,9,0,0,1-2-7.33,10,10,0,0,1,4.17-6.78A9.72,9.72,0,0,1,125.76,9.75Zm-.33,11.7a2.32,2.32,0,0,0,0-1.09,4.62,4.62,0,0,0-.88-2,3.76,3.76,0,0,0,.28,2.4C125.07,21.25,125.32,21.42,125.43,21.45Z"/><path class="cls-2" d="M157.43,19.52c1.4-5.18-5.19-7.23-5.19-7.23s7.52,1.86,6.89,7.84c-.15,1.38-2,4.49-3.43,3.22S156.87,21.6,157.43,19.52Z"/><path class="cls-2" d="M149.78,28.37a8.85,8.85,0,0,1-4.85-3.23,9,9,0,0,1-.36-8.87s-5.78,6.21-1.5,10.71C145.73,29.77,149.78,28.37,149.78,28.37Z"/><path class="cls-2" d="M121.08,19.52c-1.4-5.18,5.2-7.23,5.2-7.23s-7.53,1.86-6.9,7.84c.15,1.38,2,4.49,3.43,3.22S121.64,21.6,121.08,19.52Z"/><path class="cls-2" d="M128.73,28.37a8.85,8.85,0,0,0,4.85-3.23,9,9,0,0,0,.37-8.87s5.78,6.21,1.49,10.71C132.78,29.77,128.73,28.37,128.73,28.37Z"/><path class="cls-2" d="M136.93,12.75a6.76,6.76,0,0,1,2,3.16,6.76,6.76,0,0,1,2-3.16c2-1.72,4.85-2.51,4.33-4.29C144.69,6.27,139.66,4.7,139,0c-.82,5-5.73,6.27-6.36,8.46C132.09,10.24,134.91,11,136.93,12.75ZM136.2,7.3c.28-1.69,2.41-2.69,2.76-6.53.3,3.62,2.48,4.84,2.76,6.53.22,1.38-1,2-1.88,3.32a6.75,6.75,0,0,0-.88,2.43,6.75,6.75,0,0,0-.88-2.43C137.21,9.28,136,8.68,136.2,7.3Z"/><path class="cls-2" d="M117.9,28.18,72.05,27.6,117.9,27a.58.58,0,1,1,0,1.15Z"/><path class="cls-2" d="M161.31,27l47.95.57-47.95.58a.58.58,0,0,1-.58-.57.57.57,0,0,1,.57-.58Z"/></g></g></svg>